

<svg version="1.1" xmlns="http://www.w3.org/2000/svg" xmlns:xlink="http://www.w3.org/1999/xlink" width="176" height="32" viewBox="0 0 176 32">
	<defs>
		<g id="icon-user">
			<path class="user" d="M30.933,32.528c-0.146-1.612-0.09-2.737-0.09-4.21c0.73-0.383,2.038-2.825,2.259-4.888c0.574-0.047,1.479-0.607,1.744-2.818  c0.143-1.187-0.425-1.855-0.771-2.065c0.934-2.809,2.874-11.499-3.588-12.397c-0.665-1.168-2.368-1.759-4.581-1.759  c-8.854,0.163-9.922,6.686-7.981,14.156c-0.345,0.21-0.913,0.878-0.771,2.065c0.266,2.211,1.17,2.771,1.744,2.818  c0.22,2.062,1.58,4.505,2.312,4.888c0,1.473,0.055,2.598-0.091,4.21C19.367,37.238,7.546,35.916,7,45h38  C44.455,35.916,32.685,37.238,30.933,32.528z"/>
		</g>

		<g id="icon-menu">
			<path class="burger" d="M23.244,17.009H0.75c-0.413,0-0.75,0.36-0.75,0.801v3.421C0,21.654,0.337,22,0.75,22h22.494c0.414,0,0.75-0.346,0.75-0.77    V17.81C23.994,17.369,23.658,17.009,23.244,17.009z M23.244,9.009H0.75C0.337,9.009,0,9.369,0,9.81v3.421    c0,0.424,0.337,0.769,0.75,0.769h22.494c0.414,0,0.75-0.345,0.75-0.769V9.81C23.994,9.369,23.658,9.009,23.244,9.009z     M23.244,1.009H0.75C0.337,1.009,0,1.369,0,1.81V5.23c0,0.423,0.337,0.769,0.75,0.769h22.494c0.414,0,0.75-0.346,0.75-0.769V1.81    C23.994,1.369,23.658,1.009,23.244,1.009z"/>
		</g>
	</defs>
</svg>