<?xml version="1.0" encoding="utf-8"?>
<!-- Generated by IcoMoon.io -->
<!DOCTYPE svg PUBLIC "-//W3C//DTD SVG 1.1//EN" "http://www.w3.org/Graphics/SVG/1.1/DTD/svg11.dtd">

<svg version="1.1" xmlns="http://www.w3.org/2000/svg" xmlns:xlink="http://www.w3.org/1999/xlink" width="116" height="50" viewBox="0 0 116 50">
<defs>
<g id="icon-user">
	<path class="path1" d="M37.050 36.12c-6.162-2.245-8.133-4.14-8.133-8.198 0-2.435 1.883-1.64 2.708-6.1 0.342-1.85 2.005-0.030 2.325-4.252 0-1.683-0.908-2.102-0.908-2.102s0.462-2.492 0.642-4.408c0.22-2.39-1.38-8.56-9.935-8.56-8.552 0-10.158 6.17-9.933 8.56 0.18 1.915 0.642 4.408 0.642 4.408s-0.91 0.417-0.91 2.102c0.317 4.223 1.98 2.402 2.323 4.252 0.827 4.46 2.71 3.665 2.71 6.1 0 4.058-1.97 5.952-8.133 8.198-6.185 2.25-10.2 4.548-10.2 6.115 0 1.565 0 5.263 0 5.263h47c0 0 0-3.698 0-5.263s-4.017-3.862-10.2-6.115z" />
</g>
<g id="icon-list">
	<path class="path1" d="M40 22.5h-30c-1.38 0-2.5 1.12-2.5 2.5s1.12 2.5 2.5 2.5h30c1.383 0 2.5-1.12 2.5-2.5s-1.117-2.5-2.5-2.5zM10 17.5h30c1.383 0 2.5-1.12 2.5-2.5s-1.117-2.5-2.5-2.5h-30c-1.38 0-2.5 1.12-2.5 2.5s1.12 2.5 2.5 2.5zM40 32.5h-30c-1.38 0-2.5 1.117-2.5 2.5s1.12 2.5 2.5 2.5h30c1.383 0 2.5-1.117 2.5-2.5s-1.117-2.5-2.5-2.5z" />
</g>
</defs>

<g>
	<use xlink:href="#icon-user" transform="translate(0 0)"></use>
	<use xlink:href="#icon-list" transform="translate(66 0)"></use>
</g>

</svg>
